<?xml version="1.0" standalone="no"?>
<!DOCTYPE svg PUBLIC "-//W3C//DTD SVG 20010904//EN"
 "http://www.w3.org/TR/2001/REC-SVG-20010904/DTD/svg10.dtd">
<svg version="1.0" xmlns="http://www.w3.org/2000/svg"
 width="194.000000pt" height="317.000000pt" viewBox="0 0 194.000000 317.000000"
 preserveAspectRatio="xMidYMid meet">

<g transform="translate(0.000000,317.000000) scale(0.100000,-0.100000)"
fill="#000000" stroke="none">
<path d="M834 3145 c-336 -52 -609 -253 -750 -550 -72 -153 -84 -214 -84 -423
0 -154 3 -194 21 -259 46 -167 135 -316 263 -443 l76 -74 0 -94 c0 -79 4 -101
25 -147 14 -29 42 -67 61 -84 l35 -31 -16 -47 c-18 -51 -14 -102 11 -140 12
-19 11 -27 -6 -65 -11 -24 -20 -54 -20 -68 0 -35 34 -104 58 -122 19 -13 20
-18 10 -57 -21 -81 30 -169 110 -190 l37 -10 1 -63 c0 -82 16 -127 61 -172 54
-54 129 -79 238 -80 119 -1 193 22 245 74 47 47 75 129 67 197 -4 40 -3 44 22
49 85 20 138 98 126 184 -6 44 -4 53 18 80 50 58 58 139 21 196 -14 20 -14 25
0 46 25 39 29 89 11 141 l-16 47 35 31 c58 51 84 118 88 231 l4 97 78 78 c124
124 209 270 255 434 18 64 21 103 21 260 0 156 -3 196 -21 259 -88 319 -333
575 -649 679 -74 24 -243 51 -310 50 -25 -1 -81 -7 -126 -14z m344 -115 c249
-60 468 -234 584 -465 14 -27 38 -88 54 -135 26 -79 28 -97 29 -250 0 -172 -7
-213 -55 -342 -35 -93 -128 -225 -221 -312 l-84 -79 -5 -121 c-6 -142 -19
-170 -101 -212 -44 -22 -60 -24 -142 -22 l-92 3 0 403 0 403 53 18 c91 31 131
90 106 156 -10 26 -59 45 -117 45 -73 0 -95 -23 -99 -105 l-3 -60 -115 0 -115
0 -3 60 c-4 83 -26 105 -102 105 -82 0 -120 -29 -120 -91 0 -46 40 -85 112
-110 l53 -18 0 -403 0 -403 -107 0 c-102 0 -108 1 -149 30 -66 47 -79 81 -79
207 l0 107 -98 98 c-105 105 -149 167 -200 278 -57 127 -67 182 -66 365 0 153
2 171 28 250 50 152 118 263 224 367 223 220 527 305 830 233z m-390 -972 c7
-7 12 -29 12 -50 0 -33 -3 -38 -22 -38 -38 0 -88 37 -88 64 0 15 7 26 18 29
34 9 68 7 80 -5z m439 6 c12 -3 24 -12 27 -20 9 -23 -36 -64 -76 -71 l-38 -6
0 40 c0 57 24 74 87 57z m-142 -570 l0 -399 -115 0 -115 0 -3 390 c-1 214 -1
394 2 400 2 6 49 10 117 9 l114 -1 0 -399z"/>
</g>
</svg>
