<svg xmlns="http://www.w3.org/2000/svg" width="194" height="317" viewBox="0 0 194 317" version="1.1"><path d="M 87.333 1.667 C 87.700 2.033, 88.300 2.033, 88.667 1.667 C 89.033 1.300, 88.733 1, 88 1 C 87.267 1, 86.967 1.300, 87.333 1.667 M 105.333 1.667 C 105.700 2.033, 106.300 2.033, 106.667 1.667 C 107.033 1.300, 106.733 1, 106 1 C 105.267 1, 104.967 1.300, 105.333 1.667 M 80.333 2.667 C 80.700 3.033, 81.300 3.033, 81.667 2.667 C 82.033 2.300, 81.733 2, 81 2 C 80.267 2, 79.967 2.300, 80.333 2.667 M 112.333 2.667 C 112.700 3.033, 113.300 3.033, 113.667 2.667 C 114.033 2.300, 113.733 2, 113 2 C 112.267 2, 111.967 2.300, 112.333 2.667 M 74.333 3.667 C 74.700 4.033, 75.300 4.033, 75.667 3.667 C 76.033 3.300, 75.733 3, 75 3 C 74.267 3, 73.967 3.300, 74.333 3.667 M 131.333 7.667 C 131.700 8.033, 132.300 8.033, 132.667 7.667 C 133.033 7.300, 132.733 7, 132 7 C 131.267 7, 130.967 7.300, 131.333 7.667 M 158.500 23 C 158.840 23.550, 159.343 24, 159.618 24 C 159.893 24, 159.840 23.550, 159.500 23 C 159.160 22.450, 158.657 22, 158.382 22 C 158.107 22, 158.160 22.450, 158.500 23 M 20.405 37.155 C 19.962 37.870, 20.130 38.038, 20.845 37.595 C 21.998 36.883, 22.393 36, 21.559 36 C 21.316 36, 20.797 36.520, 20.405 37.155 M 192 75 C 192 75.733, 192.300 76.033, 192.667 75.667 C 193.033 75.300, 193.033 74.700, 192.667 74.333 C 192.300 73.967, 192 74.267, 192 75 M 160.364 112.494 C 160.048 113.316, 159.369 113.728, 158.854 113.410 C 157.166 112.367, 144.542 112.180, 142.686 113.171 C 141.469 113.820, 140.429 113.771, 139.525 113.021 C 138.581 112.237, 137.981 112.221, 137.520 112.968 C 137.158 113.553, 136.393 113.743, 135.819 113.388 C 135.246 113.034, 134.384 113.364, 133.904 114.122 C 133.271 115.120, 133.026 115.155, 133.015 114.250 C 133.007 113.563, 132.550 113, 132 113 C 131.450 113, 131 114.041, 131 115.313 C 131 118.608, 125.990 122.972, 119.804 125.067 L 114.500 126.863 114.500 167.181 L 114.500 207.500 123.710 207.787 C 131.890 208.042, 133.475 207.793, 137.872 205.565 C 146.067 201.412, 147.413 198.599, 148 184.403 L 148.500 172.307 156.922 164.403 C 170.056 152.077, 178.417 138.205, 182.648 121.720 C 184.713 113.672, 184.267 111.627, 180.449 111.632 C 178.770 111.634, 176.949 111.913, 176.401 112.252 C 175.853 112.591, 174.766 112.473, 173.986 111.991 C 173.111 111.451, 172.001 111.572, 171.092 112.307 C 169.902 113.268, 169.780 113.227, 170.463 112.095 C 171.080 111.072, 170.946 110.915, 169.971 111.518 C 168.083 112.685, 160.866 113.026, 161.552 111.916 C 161.863 111.412, 161.852 111, 161.528 111 C 161.203 111, 160.679 111.672, 160.364 112.494 M 115.750 114.392 C 114.787 115.123, 114 116.742, 114 117.991 C 114 120.038, 114.353 120.204, 117.589 119.679 C 121.406 119.060, 123.553 117.704, 125.001 114.999 C 125.641 113.802, 125.485 113.333, 124.446 113.333 C 123.651 113.333, 123 113.763, 123 114.289 C 123 114.815, 122.325 114.685, 121.500 114 C 120.464 113.140, 120 113.102, 120 113.878 C 120 114.495, 119.298 115, 118.441 115 C 117.584 115, 117.160 114.550, 117.500 114 C 118.315 112.681, 117.873 112.780, 115.750 114.392 M 86.693 114.759 C 85.329 115.068, 84.961 115.945, 85.193 118.334 L 85.500 121.500 97 121.500 L 108.500 121.500 108.500 118 L 108.500 114.500 101 114.500 C 96.875 114.500, 93.220 114.884, 92.877 115.353 C 92.535 115.823, 91.410 115.789, 90.377 115.278 C 89.345 114.767, 87.687 114.534, 86.693 114.759 M 61.181 115.888 C 60.463 116.332, 57.104 116.576, 53.715 116.431 C 50.326 116.287, 46.700 116.625, 45.656 117.184 C 44.239 117.942, 43.946 117.896, 44.500 117 C 45.060 116.093, 44.756 116.060, 43.252 116.865 C 42.158 117.451, 40.957 117.624, 40.584 117.250 C 39.553 116.220, 35.005 116.184, 34.376 117.201 C 34.071 117.694, 33.101 117.513, 32.219 116.799 C 31.337 116.084, 30.898 115.971, 31.242 116.547 C 31.657 117.243, 29.458 117.539, 24.684 117.430 C 20.733 117.339, 16.938 117.711, 16.250 118.255 C 15.419 118.913, 15 118.900, 15 118.216 C 15 117.650, 14.100 117.423, 13 117.710 C 10.518 118.359, 10.491 120.208, 12.861 127.093 C 18.074 142.235, 25.766 153.854, 38.370 165.626 L 46 172.752 46 183.642 C 46 196.409, 47.284 199.782, 53.938 204.500 C 58.003 207.381, 58.592 207.500, 68.835 207.500 L 79.500 207.500 79.500 167.181 L 79.500 126.862 74.216 125.073 C 68.829 123.250, 64.298 119.863, 63.134 116.791 C 62.718 115.694, 62.019 115.370, 61.181 115.888 M 69 115.515 C 69 115.798, 70.463 116.921, 72.250 118.011 C 76.431 120.560, 80 120.632, 80 118.167 C 80 115.567, 79.026 114.916, 76.869 116.070 C 75.544 116.779, 75 116.733, 75 115.913 C 75 115.075, 74.586 115.099, 73.500 116 C 72.464 116.860, 72 116.898, 72 116.122 C 72 115.505, 71.325 115, 70.500 115 C 69.675 115, 69 115.232, 69 115.515 M 85.360 128.502 C 85.149 129.054, 85.094 147.054, 85.238 168.502 L 85.500 207.500 97 207.500 L 108.500 207.500 108.500 167.611 L 108.500 127.722 97.122 127.611 C 90.336 127.545, 85.590 127.905, 85.360 128.502 M 21 163.378 C 21 163.585, 21.788 164.373, 22.750 165.128 C 24.336 166.371, 24.371 166.336, 23.128 164.750 C 21.821 163.084, 21 162.555, 21 163.378 M 171.405 164.155 C 170.962 164.870, 171.130 165.038, 171.845 164.595 C 172.480 164.203, 173 163.684, 173 163.441 C 173 162.607, 172.117 163.002, 171.405 164.155 M 30 172.378 C 30 172.585, 30.788 173.373, 31.750 174.128 C 33.336 175.371, 33.371 175.336, 32.128 173.750 C 30.821 172.084, 30 171.555, 30 172.378 M 158 194 C 158 194.733, 158.300 195.033, 158.667 194.667 C 159.033 194.300, 159.033 193.700, 158.667 193.333 C 158.300 192.967, 158 193.267, 158 194 M 148 219 C 148 219.733, 148.300 220.033, 148.667 219.667 C 149.033 219.300, 149.033 218.700, 148.667 218.333 C 148.300 217.967, 148 218.267, 148 219 M 148.079 239.583 C 148.127 240.748, 148.364 240.985, 148.683 240.188 C 148.972 239.466, 148.936 238.603, 148.604 238.271 C 148.272 237.939, 148.036 238.529, 148.079 239.583 M 45 241 C 45 241.733, 45.300 242.033, 45.667 241.667 C 46.033 241.300, 46.033 240.700, 45.667 240.333 C 45.300 239.967, 45 240.267, 45 241 M 142.079 260.583 C 142.127 261.748, 142.364 261.985, 142.683 261.188 C 142.972 260.466, 142.936 259.603, 142.604 259.271 C 142.272 258.939, 142.036 259.529, 142.079 260.583 M 66 295 C 66 295.733, 66.300 296.033, 66.667 295.667 C 67.033 295.300, 67.033 294.700, 66.667 294.333 C 66.300 293.967, 66 294.267, 66 295 M 74.500 309 C 74.840 309.550, 75.343 310, 75.618 310 C 75.893 310, 75.840 309.550, 75.500 309 C 75.160 308.450, 74.657 308, 74.382 308 C 74.107 308, 74.160 308.450, 74.500 309 M 89.333 314.667 C 89.700 315.033, 90.300 315.033, 90.667 314.667 C 91.033 314.300, 90.733 314, 90 314 C 89.267 314, 88.967 314.300, 89.333 314.667" stroke="none" fill="#ffbc00" fill-rule="evenodd"/><path d="M 86.472 11.980 C 51.540 16.908, 23.413 40.223, 12.889 72.975 C 9.490 83.552, 8.116 98.917, 9.452 111.394 C 10.148 117.896, 10.288 118.178, 12.590 117.738 C 13.916 117.485, 15 117.720, 15 118.261 C 15 118.903, 15.434 118.901, 16.250 118.255 C 16.938 117.711, 20.733 117.339, 24.684 117.430 C 29.458 117.539, 31.657 117.243, 31.242 116.547 C 30.898 115.971, 31.337 116.084, 32.219 116.799 C 33.101 117.513, 34.071 117.694, 34.376 117.201 C 35.005 116.184, 39.553 116.220, 40.584 117.250 C 40.957 117.624, 42.158 117.451, 43.252 116.865 C 44.756 116.060, 45.060 116.093, 44.500 117 C 43.949 117.892, 44.239 117.944, 45.629 117.203 C 46.658 116.654, 50.200 116.315, 53.500 116.449 C 60.320 116.726, 63 115.766, 63 113.047 C 63 107.722, 67.153 105, 75.276 105 C 79.602 105, 81.076 105.452, 82.826 107.314 C 84.022 108.587, 85 110.832, 85 112.303 C 85 114.447, 85.447 114.953, 87.250 114.853 C 88.487 114.785, 90.287 115.063, 91.250 115.472 C 92.213 115.880, 93 115.828, 93 115.357 C 93 114.886, 96.600 114.500, 101 114.500 C 108.929 114.500, 109 114.477, 109 111.924 C 109 107.665, 112.797 105, 118.864 105 C 124.952 105, 129.563 107.047, 130.561 110.192 C 131.415 112.883, 134 115.718, 134 113.964 C 134 113.316, 134.661 113.040, 135.468 113.349 C 136.275 113.659, 137.215 113.460, 137.557 112.908 C 137.964 112.249, 138.642 112.288, 139.525 113.021 C 140.429 113.771, 141.469 113.820, 142.686 113.171 C 144.531 112.186, 157.713 112.379, 158.740 113.406 C 159.049 113.716, 159.943 113.188, 160.725 112.234 C 161.508 111.281, 161.887 111.025, 161.567 111.666 C 160.898 113.008, 167.755 112.888, 169.971 111.518 C 170.938 110.920, 171.087 111.080, 170.508 112.095 C 169.873 113.208, 169.977 113.249, 171.006 112.297 C 171.888 111.481, 172.881 111.401, 174.093 112.050 C 175.075 112.575, 176.097 112.652, 176.364 112.220 C 176.631 111.788, 178.738 111.540, 181.047 111.669 L 185.245 111.904 184.759 97.202 C 184.348 84.727, 183.857 81.212, 181.520 74 C 173.395 48.917, 156.957 30.242, 133.440 19.377 C 119.852 13.099, 100.332 10.024, 86.472 11.980 M 27.405 29.155 C 26.962 29.870, 27.130 30.038, 27.845 29.595 C 28.480 29.203, 29 28.684, 29 28.441 C 29 27.607, 28.117 28.002, 27.405 29.155 M 165.500 29 C 165.840 29.550, 166.343 30, 166.618 30 C 166.893 30, 166.840 29.550, 166.500 29 C 166.160 28.450, 165.657 28, 165.382 28 C 165.107 28, 165.160 28.450, 165.500 29 M 70.750 110.689 C 68.618 111.247, 68.400 115, 70.500 115 C 71.325 115, 72 115.505, 72 116.122 C 72 116.898, 72.464 116.860, 73.500 116 C 74.586 115.099, 75 115.075, 75 115.913 C 75 116.733, 75.544 116.779, 76.869 116.070 C 77.896 115.520, 79.021 115.355, 79.369 115.702 C 79.716 116.049, 80 115.448, 80 114.367 C 80 110.593, 76.477 109.193, 70.750 110.689 M 115.200 111.200 C 113.844 112.556, 113.586 115, 114.800 115 C 115.240 115, 116.206 114.438, 116.947 113.750 C 118.024 112.750, 118.152 112.750, 117.588 113.750 C 117.155 114.517, 117.484 115, 118.441 115 C 119.298 115, 120 114.495, 120 113.878 C 120 113.102, 120.464 113.140, 121.500 114 C 122.618 114.928, 123 114.944, 123 114.063 C 123 113.414, 123.450 113.160, 124 113.500 C 124.550 113.840, 125 113.469, 125 112.676 C 125 110.175, 117.373 109.027, 115.200 111.200" stroke="none" fill="#fbce04" fill-rule="evenodd"/><path d="M 79.500 2.949 C 42.151 9.617, 12.341 36.999, 1.891 74.237 C -0.961 84.398, -0.853 115.461, 2.071 126.020 C 6.599 142.372, 15.877 158.059, 28.090 170.007 L 34.740 176.513 35.182 186.007 C 35.703 197.226, 38.030 203.389, 44.074 209.565 L 48.053 213.629 46.526 217.283 C 44.486 222.166, 44.603 225.799, 46.949 230.401 C 48.659 233.755, 48.727 234.487, 47.500 236.362 C 45.399 239.573, 44.625 246.333, 45.912 250.232 C 46.536 252.123, 48.346 254.916, 49.935 256.438 C 52.509 258.904, 52.711 259.530, 51.790 262.173 C 49.128 269.808, 53.722 278.752, 61.777 281.617 L 66.500 283.298 66.558 290.483 C 66.678 305.367, 75.628 313.257, 94 314.673 C 108.088 315.759, 120.042 310.858, 124.946 301.985 C 126.866 298.512, 127.404 296.047, 127.446 290.530 L 127.500 283.500 132.253 281.679 C 135.211 280.546, 138.045 278.497, 139.753 276.257 C 142.139 273.130, 142.510 271.706, 142.576 265.430 C 142.641 259.175, 142.999 257.789, 145.241 255.126 C 146.665 253.433, 148.133 250.669, 148.504 248.984 C 149.276 245.469, 148.227 236.259, 146.967 235.479 C 146.501 235.192, 146.798 232.676, 147.625 229.889 C 149.024 225.181, 148.952 216.349, 147.496 213.994 C 147.186 213.492, 148.522 211.321, 150.465 209.171 C 156.118 202.913, 158.314 196.864, 158.811 186.176 L 159.245 176.852 166.418 169.676 C 178.075 158.013, 186.827 143.518, 190.976 129 C 192.155 124.875, 193.543 120.719, 194.060 119.764 C 195.273 117.523, 195.311 77.690, 194.099 78.439 C 193.604 78.745, 192.636 76.634, 191.949 73.748 C 188.378 58.745, 178.966 42.824, 166.064 29.964 C 151.517 15.463, 134.139 6.431, 114 2.902 C 101.033 0.631, 92.421 0.642, 79.500 2.949 M 86.472 11.980 C 66.126 14.850, 49.042 23.208, 34.767 37.274 C 24.169 47.717, 17.447 58.771, 12.436 74 C 9.848 81.867, 9.634 83.729, 9.570 99 C 9.493 117.262, 10.498 122.769, 16.235 135.500 C 21.251 146.632, 25.695 152.819, 36.189 163.277 L 46 173.055 46 183.793 C 46 196.395, 47.304 199.796, 53.938 204.500 C 58.003 207.381, 58.592 207.500, 68.835 207.500 L 79.500 207.500 79.500 167.181 L 79.500 126.862 74.196 125.066 C 67.003 122.631, 62.995 118.688, 63.015 114.063 C 63.042 107.858, 66.837 105, 75.048 105 C 82.626 105, 84.768 107.218, 85.193 115.504 L 85.500 121.500 97 121.500 L 108.500 121.500 108.807 115.504 C 109.228 107.297, 111.397 105, 118.724 105 C 124.472 105, 129.367 106.909, 130.379 109.545 C 132.913 116.149, 128.946 121.971, 119.804 125.067 L 114.500 126.863 114.500 167.181 L 114.500 207.500 123.710 207.787 C 131.890 208.042, 133.475 207.793, 137.872 205.565 C 146.067 201.412, 147.413 198.599, 148 184.403 L 148.500 172.307 156.922 164.403 C 166.201 155.695, 175.532 142.535, 179.010 133.250 C 183.847 120.338, 184.502 116.215, 184.450 99 C 184.404 83.656, 184.203 81.904, 181.584 74 C 173.198 48.695, 156.919 30.225, 133.440 19.377 C 119.852 13.099, 100.332 10.024, 86.472 11.980 M 0.423 99.500 C 0.424 111.050, 0.570 115.638, 0.747 109.696 C 0.924 103.753, 0.923 94.303, 0.745 88.696 C 0.567 83.088, 0.422 87.950, 0.423 99.500 M 70.750 110.689 C 69.686 110.967, 69 112.104, 69 113.588 C 69 116.346, 73.976 119.990, 77.750 119.996 C 79.689 119.999, 80 119.475, 80 116.200 C 80 114.110, 79.460 111.860, 78.800 111.200 C 77.616 110.016, 74.164 109.797, 70.750 110.689 M 115.200 111.200 C 114.540 111.860, 114 114.169, 114 116.331 L 114 120.262 117.750 119.665 C 121.831 119.015, 126.280 114.894, 125.394 112.585 C 124.430 110.073, 117.296 109.104, 115.200 111.200 M 85.360 128.502 C 85.149 129.054, 85.094 147.054, 85.238 168.502 L 85.500 207.500 97 207.500 L 108.500 207.500 108.500 167.611 L 108.500 127.722 97.122 127.611 C 90.336 127.545, 85.590 127.905, 85.360 128.502" stroke="none" fill="#1d1d1d" fill-rule="evenodd"/></svg>